<?xml version="1.0" encoding="iso-8859-1"?>
<!-- Uploaded to: SVG Repo, www.svgrepo.com, Generator: SVG Repo Mixer Tools -->
<svg fill="#000000" height="800px" width="800px" version="1.1" id="Layer_1" xmlns="http://www.w3.org/2000/svg" xmlns:xlink="http://www.w3.org/1999/xlink" 
	 viewBox="0 0 512 512" xml:space="preserve">
<g>
	<g>
		<path d="M256,0C114.842,0,0,114.842,0,256s114.842,256,256,256s256-114.842,256-256S397.158,0,256,0z M132.129,371.613
			c-13.682,0-24.774-11.092-24.774-24.774s11.092-24.774,24.774-24.774s24.774,11.092,24.774,24.774
			S145.811,371.613,132.129,371.613z M132.129,189.935c-13.682,0-24.774-11.092-24.774-24.774c0-13.682,11.092-24.774,24.774-24.774
			s24.774,11.092,24.774,24.774C156.903,178.843,145.811,189.935,132.129,189.935z M231.226,173.419
			c-22.804,0-41.29-18.487-41.29-41.29s18.487-41.29,41.29-41.29s41.29,18.487,41.29,41.29S254.03,173.419,231.226,173.419z
			 M322.065,404.645c-36.486,0-66.065-29.579-66.065-66.065s29.579-66.065,66.065-66.065s66.065,29.579,66.065,66.065
			S358.55,404.645,322.065,404.645z M396.387,272.516c-13.682,0-24.774-11.092-24.774-24.774s11.092-24.774,24.774-24.774
			s24.774,11.092,24.774,24.774S410.069,272.516,396.387,272.516z"/>
	</g>
</g>
</svg>